<?xml version="1.0" encoding="UTF-8" standalone="no"?>
<svg width="15px" height="15px" viewBox="0 0 15 15" version="1.1" xmlns="http://www.w3.org/2000/svg" xmlns:xlink="http://www.w3.org/1999/xlink">
    <!-- Generator: Sketch 44.1 (41455) - http://www.bohemiancoding.com/sketch -->
    <title>Group 2 Copy 8@2x</title>
    <desc>Created with Sketch.</desc>
    <defs></defs>
    <g id="ltv迁入项目－现金贷" stroke="none" stroke-width="1" fill="none" fill-rule="evenodd">
        <g id="Group-2-Copy-8" transform="translate(1.000000, 0.000000)" fill="#889FFF">
            <path d="M0.732967601,11.3453791 L0.732967601,13.5040172 C0.732967601,14.0623983 1.18124942,14.5032738 1.73423307,14.5032738 L11.9669962,14.5032738 C12.5182904,14.5032738 12.9682617,14.0558914 12.9682617,13.5040172 L12.9682617,1.2920041 C12.9682617,0.733623031 12.5199799,0.292747489 11.9669962,0.292747489 L1.73423307,0.292747489 C1.18293887,0.292747489 0.732967601,0.740129914 0.732967601,1.2920041 L0.732967601,3.45064223 L1.49767348,3.45064223 L1.49767348,1.57739404 C1.49767348,1.30391762 1.72128105,1.08222117 1.99968098,1.08222117 L11.7015483,1.08222117 C11.9787994,1.08222117 12.2035558,1.30146588 12.2035558,1.57739404 L12.2035558,13.2186273 C12.2035558,13.4921037 11.9799483,13.7138001 11.7015483,13.7138001 L1.99968098,13.7138001 C1.7224299,13.7138001 1.49767348,13.4945554 1.49767348,13.2186273 L1.49767348,11.3453791 L0.732967601,11.3453791 Z" id="Combined-Shape"></path>
            <rect id="Rectangle-21" x="0.0653435202" y="4.63485275" width="2.29411765" height="1" rx="0.5"></rect>
            <rect id="Rectangle-21-Copy-3" x="0.732967601" y="3.05590538" width="1" height="1" rx="0.5"></rect>
            <rect id="Rectangle-21-Copy-4" x="0.732967601" y="10.9383111" width="1" height="1" rx="0.5"></rect>
            <rect id="Rectangle-21-Copy" x="0.0653435202" y="6.99710825" width="2.29411765" height="1" rx="0.5"></rect>
            <rect id="Rectangle-21-Copy-2" x="0.0653435202" y="9.35936376" width="2.29411765" height="1" rx="0.5"></rect>
            <g id="Group-3" transform="translate(3.925885, 4.227785)">
                <rect id="Rectangle-21-Copy-5" x="0.354756828" y="5.78040297" width="1" height="1" rx="0.5"></rect>
                <rect id="Rectangle-21-Copy-6" x="4.90342349" y="5.78040297" width="1" height="1" rx="0.5"></rect>
                <path d="M3.01074937,4.10710385 C1.95491088,4.10710385 1.09898466,3.22345533 1.09898466,2.13341964 C1.09898466,1.04338395 1.95491088,0.159735429 3.01074937,0.159735429 C4.06658786,0.159735429 4.92251407,1.04338395 4.92251407,2.13341964 C4.92251407,3.22345533 4.06658786,4.10710385 3.01074937,4.10710385 Z M3.01074937,3.31763017 C3.64425246,3.31763017 4.15780819,2.78744105 4.15780819,2.13341964 C4.15780819,1.47939822 3.64425246,0.949209113 3.01074937,0.949209113 C2.37724627,0.949209113 1.86369054,1.47939822 1.86369054,2.13341964 C1.86369054,2.78744105 2.37724627,3.31763017 3.01074937,3.31763017 Z" id="Combined-Shape"></path>
                <path d="M0.354199545,6.13670443 C0.516002094,4.77048789 1.64368371,3.71236701 3.01074937,3.71236701 C4.38017747,3.71236701 5.50939344,4.77414815 5.66812937,6.1437901 L4.90523852,6.20905508 C4.77921715,5.24504335 3.97905251,4.50184069 3.01074937,4.50184069 C2.04336036,4.50184069 1.24379254,5.24364076 1.11661894,6.20632541 L0.354199545,6.13670443 Z" id="Combined-Shape-Copy-38"></path>
            </g>
        </g>
    </g>
</svg>